<svg width="18" height="21" viewBox="0 0 18 21" fill="none" xmlns="http://www.w3.org/2000/svg">
<g opacity="0.5">
<path d="M4.49294 0.663416C4.66182 0.376267 5.07586 0.372828 5.24948 0.657132L9.38301 7.42581C9.56194 7.71881 9.35223 8.09489 9.00891 8.09667L0.869805 8.13901C0.527713 8.14079 0.313935 7.76931 0.487356 7.47443L4.49294 0.663416Z" fill="#EE4817"/>
<path d="M9.37705 19.8657C9.20109 20.0851 8.86751 20.0859 8.69042 19.8675L0.581315 9.86362C0.347843 9.5756 0.552392 9.14553 0.923157 9.14489L17.0788 9.11705C17.4493 9.11641 17.6554 9.54507 17.4236 9.83402L9.37705 19.8657Z" fill="url(#paint0_radial_734_318)"/>
<path d="M12.1224 0.669593C12.2911 0.373301 12.7179 0.372418 12.8879 0.668011L16.7942 7.46076C16.9633 7.75478 16.751 8.12164 16.4119 8.12164H8.6366C8.29825 8.12164 8.08592 7.75635 8.25338 7.46234L12.1224 0.669593Z" fill="#4AD5F4"/>
<path d="M13.1027 2.1094C13.2726 1.81916 13.6918 1.81831 13.863 2.10785L16.9774 7.37781C17.1511 7.6718 16.9392 8.04321 16.5977 8.04321H10.3978C10.0571 8.04321 9.84505 7.67336 10.0172 7.37935L13.1027 2.1094Z" fill="#D05EBC"/>
</g>
<defs>
<radialGradient id="paint0_radial_734_318" cx="0" cy="0" r="1" gradientUnits="userSpaceOnUse" gradientTransform="translate(7.8667 -0.0294967) rotate(83.5434) scale(15.8304 14.2069)">
<stop stop-color="#CD095B"/>
<stop offset="0.519986" stop-color="#EA3581"/>
</radialGradient>
</defs>
</svg>
